<svg width="31" height="37" viewBox="0 0 31 37" fill="none" xmlns="http://www.w3.org/2000/svg">
<path d="M29.8231 28.5549C29.2762 29.8127 28.6288 30.9704 27.8788 32.0348C26.8564 33.4859 26.0193 34.4903 25.3742 35.0481C24.3741 35.9636 23.3027 36.4325 22.1553 36.4591C21.3316 36.4591 20.3382 36.2258 19.1819 35.7525C18.0218 35.2814 16.9556 35.0481 15.9808 35.0481C14.9584 35.0481 13.8619 35.2814 12.6891 35.7525C11.5145 36.2258 10.5682 36.4725 9.84475 36.4969C8.74447 36.5436 7.64775 36.0614 6.55305 35.0481C5.85435 34.4414 4.98042 33.4015 3.93348 31.9282C2.8102 30.3549 1.88671 28.5305 1.16324 26.4506C0.388415 24.204 0 22.0285 0 19.9223C0 17.5097 0.52369 15.4289 1.57263 13.6852C2.39701 12.2845 3.49372 11.1797 4.86635 10.3686C6.23897 9.55751 7.72209 9.14419 9.31928 9.11774C10.1932 9.11774 11.3393 9.38685 12.7634 9.91572C14.1836 10.4464 15.0955 10.7155 15.4953 10.7155C15.7942 10.7155 16.8072 10.4008 18.5245 9.7735C20.1485 9.19174 21.5191 8.95086 22.6419 9.04575C25.6845 9.29018 27.9703 10.4841 29.4905 12.6352C26.7694 14.2765 25.4233 16.5753 25.4501 19.5243C25.4747 21.8214 26.3118 23.7329 27.9569 25.2506C28.7025 25.955 29.5352 26.4994 30.4615 26.8861C30.2606 27.4661 30.0486 28.0216 29.8231 28.5549ZM22.845 1.22021C22.845 3.02062 22.1843 4.70165 20.8673 6.25761C19.2779 8.10733 17.3554 9.17619 15.2707 9.00752C15.2442 8.79153 15.2288 8.5642 15.2288 8.32532C15.2288 6.59693 15.9846 4.74721 17.3269 3.23481C17.997 2.46906 18.8493 1.83234 19.8828 1.32442C20.9141 0.824083 21.8896 0.547384 22.8071 0.5C22.8339 0.740687 22.845 0.981389 22.845 1.22018V1.22021Z" fill="#101010"/>
<path d="M29.8231 28.5549C29.2762 29.8127 28.6288 30.9704 27.8788 32.0348C26.8564 33.4859 26.0193 34.4903 25.3742 35.0481C24.3741 35.9636 23.3027 36.4325 22.1553 36.4591C21.3316 36.4591 20.3382 36.2258 19.1819 35.7525C18.0218 35.2814 16.9556 35.0481 15.9808 35.0481C14.9584 35.0481 13.8619 35.2814 12.6891 35.7525C11.5145 36.2258 10.5682 36.4725 9.84475 36.4969C8.74447 36.5436 7.64775 36.0614 6.55305 35.0481C5.85435 34.4414 4.98042 33.4015 3.93348 31.9282C2.8102 30.3549 1.88671 28.5305 1.16324 26.4506C0.388415 24.204 0 22.0285 0 19.9223C0 17.5097 0.52369 15.4289 1.57263 13.6852C2.39701 12.2845 3.49372 11.1797 4.86635 10.3686C6.23897 9.55751 7.72209 9.14419 9.31928 9.11774C10.1932 9.11774 11.3393 9.38685 12.7634 9.91572C14.1836 10.4464 15.0955 10.7155 15.4953 10.7155C15.7942 10.7155 16.8072 10.4008 18.5245 9.7735C20.1485 9.19174 21.5191 8.95086 22.6419 9.04575C25.6845 9.29018 27.9703 10.4841 29.4905 12.6352C26.7694 14.2765 25.4233 16.5753 25.4501 19.5243C25.4747 21.8214 26.3118 23.7329 27.9569 25.2506C28.7025 25.955 29.5352 26.4994 30.4615 26.8861C30.2606 27.4661 30.0486 28.0216 29.8231 28.5549ZM22.845 1.22021C22.845 3.02062 22.1843 4.70165 20.8673 6.25761C19.2779 8.10733 17.3554 9.17619 15.2707 9.00752C15.2442 8.79153 15.2288 8.5642 15.2288 8.32532C15.2288 6.59693 15.9846 4.74721 17.3269 3.23481C17.997 2.46906 18.8493 1.83234 19.8828 1.32442C20.9141 0.824083 21.8896 0.547384 22.8071 0.5C22.8339 0.740687 22.845 0.981389 22.845 1.22018V1.22021Z" fill="#101010"/>
</svg>
